<svg id="visual" viewBox="0 0 900 450" width="900" height="450" xmlns="http://www.w3.org/2000/svg" xmlns:xlink="http://www.w3.org/1999/xlink" version="1.1"><rect x="0" y="0" width="900" height="450" fill="#fff1f2"></rect><path d="M0 377L39 377L39 367L78 367L78 374L117 374L117 384L157 384L157 374L196 374L196 377L235 377L235 380L274 380L274 373L313 373L313 381L352 381L352 365L391 365L391 374L430 374L430 374L470 374L470 375L509 375L509 385L548 385L548 382L587 382L587 370L626 370L626 379L665 379L665 370L704 370L704 379L743 379L743 377L783 377L783 373L822 373L822 365L861 365L861 374L900 374L900 370L900 451L900 451L861 451L861 451L822 451L822 451L783 451L783 451L743 451L743 451L704 451L704 451L665 451L665 451L626 451L626 451L587 451L587 451L548 451L548 451L509 451L509 451L470 451L470 451L430 451L430 451L391 451L391 451L352 451L352 451L313 451L313 451L274 451L274 451L235 451L235 451L196 451L196 451L157 451L157 451L117 451L117 451L78 451L78 451L39 451L39 451L0 451Z" fill="#fb7185"></path><path d="M0 397L39 397L39 391L78 391L78 378L117 378L117 387L157 387L157 395L196 395L196 399L235 399L235 388L274 388L274 398L313 398L313 384L352 384L352 399L391 399L391 401L430 401L430 391L470 391L470 395L509 395L509 392L548 392L548 396L587 396L587 399L626 399L626 395L665 395L665 378L704 378L704 389L743 389L743 393L783 393L783 390L822 390L822 382L861 382L861 393L900 393L900 385L900 451L900 451L861 451L861 451L822 451L822 451L783 451L783 451L743 451L743 451L704 451L704 451L665 451L665 451L626 451L626 451L587 451L587 451L548 451L548 451L509 451L509 451L470 451L470 451L430 451L430 451L391 451L391 451L352 451L352 451L313 451L313 451L274 451L274 451L235 451L235 451L196 451L196 451L157 451L157 451L117 451L117 451L78 451L78 451L39 451L39 451L0 451Z" fill="#f56076"></path><path d="M0 410L39 410L39 406L78 406L78 395L117 395L117 415L157 415L157 404L196 404L196 408L235 408L235 403L274 403L274 400L313 400L313 411L352 411L352 403L391 403L391 411L430 411L430 399L470 399L470 392L509 392L509 395L548 395L548 399L587 399L587 396L626 396L626 398L665 398L665 404L704 404L704 410L743 410L743 404L783 404L783 404L822 404L822 394L861 394L861 404L900 404L900 410L900 451L900 451L861 451L861 451L822 451L822 451L783 451L783 451L743 451L743 451L704 451L704 451L665 451L665 451L626 451L626 451L587 451L587 451L548 451L548 451L509 451L509 451L470 451L470 451L430 451L430 451L391 451L391 451L352 451L352 451L313 451L313 451L274 451L274 451L235 451L235 451L196 451L196 451L157 451L157 451L117 451L117 451L78 451L78 451L39 451L39 451L0 451Z" fill="#ef4e67"></path><path d="M0 431L39 431L39 420L78 420L78 416L117 416L117 428L157 428L157 410L196 410L196 419L235 419L235 426L274 426L274 425L313 425L313 414L352 414L352 415L391 415L391 419L430 419L430 425L470 425L470 410L509 410L509 411L548 411L548 412L587 412L587 416L626 416L626 407L665 407L665 423L704 423L704 416L743 416L743 423L783 423L783 418L822 418L822 416L861 416L861 428L900 428L900 426L900 451L900 451L861 451L861 451L822 451L822 451L783 451L783 451L743 451L743 451L704 451L704 451L665 451L665 451L626 451L626 451L587 451L587 451L548 451L548 451L509 451L509 451L470 451L470 451L430 451L430 451L391 451L391 451L352 451L352 451L313 451L313 451L274 451L274 451L235 451L235 451L196 451L196 451L157 451L157 451L117 451L117 451L78 451L78 451L39 451L39 451L0 451Z" fill="#e83957"></path><path d="M0 429L39 429L39 429L78 429L78 431L117 431L117 422L157 422L157 429L196 429L196 443L235 443L235 445L274 445L274 429L313 429L313 445L352 445L352 441L391 441L391 444L430 444L430 436L470 436L470 437L509 437L509 429L548 429L548 441L587 441L587 431L626 431L626 441L665 441L665 442L704 442L704 435L743 435L743 439L783 439L783 425L822 425L822 441L861 441L861 429L900 429L900 431L900 451L900 451L861 451L861 451L822 451L822 451L783 451L783 451L743 451L743 451L704 451L704 451L665 451L665 451L626 451L626 451L587 451L587 451L548 451L548 451L509 451L509 451L470 451L470 451L430 451L430 451L391 451L391 451L352 451L352 451L313 451L313 451L274 451L274 451L235 451L235 451L196 451L196 451L157 451L157 451L117 451L117 451L78 451L78 451L39 451L39 451L0 451Z" fill="#e11d48"></path></svg>