<svg id="visual" viewBox="0 0 1600 100" width="1600" height="100" xmlns="http://www.w3.org/2000/svg" xmlns:xlink="http://www.w3.org/1999/xlink" version="1.1">
    <rect x="0" y="0" width="1600" height="100" fill="#fff1f2"></rect>
    <path d="M0 3L70 3L70 4L139 4L139 9L209 9L209 4L278 4L278 51L348 51L348 12L417 12L417 30L487 30L487 25L557 25L557 30L626 30L626 7L696 7L696 0L765 0L765 11L835 11L835 11L904 11L904 22L974 22L974 5L1043 5L1043 45L1113 45L1113 23L1183 23L1183 34L1252 34L1252 1L1322 1L1322 30L1391 30L1391 24L1461 24L1461 46L1530 46L1530 18L1600 18L1600 28L1600 101L1600 101L1530 101L1530 101L1461 101L1461 101L1391 101L1391 101L1322 101L1322 101L1252 101L1252 101L1183 101L1183 101L1113 101L1113 101L1043 101L1043 101L974 101L974 101L904 101L904 101L835 101L835 101L765 101L765 101L696 101L696 101L626 101L626 101L557 101L557 101L487 101L487 101L417 101L417 101L348 101L348 101L278 101L278 101L209 101L209 101L139 101L139 101L70 101L70 101L0 101Z" fill="#fb7185"></path>
    <path d="M0 30L70 30L70 13L139 13L139 53L209 53L209 26L278 26L278 31L348 31L348 16L417 16L417 22L487 22L487 60L557 60L557 32L626 32L626 15L696 15L696 44L765 44L765 49L835 49L835 36L904 36L904 22L974 22L974 20L1043 20L1043 58L1113 58L1113 14L1183 14L1183 19L1252 19L1252 45L1322 45L1322 41L1391 41L1391 37L1461 37L1461 24L1530 24L1530 56L1600 56L1600 15L1600 101L1600 101L1530 101L1530 101L1461 101L1461 101L1391 101L1391 101L1322 101L1322 101L1252 101L1252 101L1183 101L1183 101L1113 101L1113 101L1043 101L1043 101L974 101L974 101L904 101L904 101L835 101L835 101L765 101L765 101L696 101L696 101L626 101L626 101L557 101L557 101L487 101L487 101L417 101L417 101L348 101L348 101L278 101L278 101L209 101L209 101L139 101L139 101L70 101L70 101L0 101Z" fill="#f7667b"></path>
    <path d="M0 36L70 36L70 47L139 47L139 35L209 35L209 34L278 34L278 61L348 61L348 34L417 34L417 68L487 68L487 34L557 34L557 44L626 44L626 46L696 46L696 40L765 40L765 27L835 27L835 63L904 63L904 58L974 58L974 43L1043 43L1043 58L1113 58L1113 29L1183 29L1183 40L1252 40L1252 62L1322 62L1322 57L1391 57L1391 57L1461 57L1461 65L1530 65L1530 47L1600 47L1600 56L1600 101L1600 101L1530 101L1530 101L1461 101L1461 101L1391 101L1391 101L1322 101L1322 101L1252 101L1252 101L1183 101L1183 101L1113 101L1113 101L1043 101L1043 101L974 101L974 101L904 101L904 101L835 101L835 101L765 101L765 101L696 101L696 101L626 101L626 101L557 101L557 101L487 101L487 101L417 101L417 101L348 101L348 101L278 101L278 101L209 101L209 101L139 101L139 101L70 101L70 101L0 101Z" fill="#f35a71"></path>
    <path d="M0 64L70 64L70 73L139 73L139 70L209 70L209 37L278 37L278 45L348 45L348 64L417 64L417 55L487 55L487 56L557 56L557 39L626 39L626 55L696 55L696 70L765 70L765 41L835 41L835 45L904 45L904 73L974 73L974 60L1043 60L1043 67L1113 67L1113 63L1183 63L1183 46L1252 46L1252 72L1322 72L1322 50L1391 50L1391 44L1461 44L1461 63L1530 63L1530 64L1600 64L1600 62L1600 101L1600 101L1530 101L1530 101L1461 101L1461 101L1391 101L1391 101L1322 101L1322 101L1252 101L1252 101L1183 101L1183 101L1113 101L1113 101L1043 101L1043 101L974 101L974 101L904 101L904 101L835 101L835 101L765 101L765 101L696 101L696 101L626 101L626 101L557 101L557 101L487 101L487 101L417 101L417 101L348 101L348 101L278 101L278 101L209 101L209 101L139 101L139 101L70 101L70 101L0 101Z" fill="#ef4e67"></path>
    <path d="M0 70L70 70L70 58L139 58L139 55L209 55L209 68L278 68L278 52L348 52L348 54L417 54L417 74L487 74L487 59L557 59L557 79L626 79L626 66L696 66L696 63L765 63L765 73L835 73L835 83L904 83L904 51L974 51L974 68L1043 68L1043 79L1113 79L1113 79L1183 79L1183 78L1252 78L1252 70L1322 70L1322 56L1391 56L1391 84L1461 84L1461 64L1530 64L1530 69L1600 69L1600 60L1600 101L1600 101L1530 101L1530 101L1461 101L1461 101L1391 101L1391 101L1322 101L1322 101L1252 101L1252 101L1183 101L1183 101L1113 101L1113 101L1043 101L1043 101L974 101L974 101L904 101L904 101L835 101L835 101L765 101L765 101L696 101L696 101L626 101L626 101L557 101L557 101L487 101L487 101L417 101L417 101L348 101L348 101L278 101L278 101L209 101L209 101L139 101L139 101L70 101L70 101L0 101Z" fill="#eb415d"></path>
    <path d="M0 86L70 86L70 91L139 91L139 77L209 77L209 73L278 73L278 73L348 73L348 87L417 87L417 83L487 83L487 88L557 88L557 66L626 66L626 74L696 74L696 69L765 69L765 80L835 80L835 74L904 74L904 71L974 71L974 88L1043 88L1043 69L1113 69L1113 74L1183 74L1183 88L1252 88L1252 64L1322 64L1322 68L1391 68L1391 67L1461 67L1461 78L1530 78L1530 88L1600 88L1600 62L1600 101L1600 101L1530 101L1530 101L1461 101L1461 101L1391 101L1391 101L1322 101L1322 101L1252 101L1252 101L1183 101L1183 101L1113 101L1113 101L1043 101L1043 101L974 101L974 101L904 101L904 101L835 101L835 101L765 101L765 101L696 101L696 101L626 101L626 101L557 101L557 101L487 101L487 101L417 101L417 101L348 101L348 101L278 101L278 101L209 101L209 101L139 101L139 101L70 101L70 101L0 101Z" fill="#e63152"></path>
    <path d="M0 74L70 74L70 83L139 83L139 93L209 93L209 94L278 94L278 91L348 91L348 79L417 79L417 93L487 93L487 92L557 92L557 77L626 77L626 91L696 91L696 81L765 81L765 83L835 83L835 93L904 93L904 91L974 91L974 94L1043 94L1043 87L1113 87L1113 82L1183 82L1183 78L1252 78L1252 95L1322 95L1322 81L1391 81L1391 99L1461 99L1461 83L1530 83L1530 97L1600 97L1600 88L1600 101L1600 101L1530 101L1530 101L1461 101L1461 101L1391 101L1391 101L1322 101L1322 101L1252 101L1252 101L1183 101L1183 101L1113 101L1113 101L1043 101L1043 101L974 101L974 101L904 101L904 101L835 101L835 101L765 101L765 101L696 101L696 101L626 101L626 101L557 101L557 101L487 101L487 101L417 101L417 101L348 101L348 101L278 101L278 101L209 101L209 101L139 101L139 101L70 101L70 101L0 101Z" fill="#e11d48"></path>
</svg>