<svg id="visual" viewBox="0 0 1600 100" width="1600" height="100" xmlns="http://www.w3.org/2000/svg" xmlns:xlink="http://www.w3.org/1999/xlink" version="1.1">
    <rect x="0" y="0" width="1600" height="100" fill="#fff1f2"></rect>
    <path d="M0 95L70 95L70 94L139 94L139 89L209 89L209 94L278 94L278 47L348 47L348 86L417 86L417 68L487 68L487 73L557 73L557 68L626 68L626 91L696 91L696 98L765 98L765 87L835 87L835 87L904 87L904 76L974 76L974 93L1043 93L1043 53L1113 53L1113 75L1183 75L1183 64L1252 64L1252 97L1322 97L1322 68L1391 68L1391 74L1461 74L1461 52L1530 52L1530 80L1600 80L1600 70L1600 0L1600 0L1530 0L1530 0L1461 0L1461 0L1391 0L1391 0L1322 0L1322 0L1252 0L1252 0L1183 0L1183 0L1113 0L1113 0L1043 0L1043 0L974 0L974 0L904 0L904 0L835 0L835 0L765 0L765 0L696 0L696 0L626 0L626 0L557 0L557 0L487 0L487 0L417 0L417 0L348 0L348 0L278 0L278 0L209 0L209 0L139 0L139 0L70 0L70 0L0 0Z" fill="#fb7185"></path>
    <path d="M0 68L70 68L70 85L139 85L139 45L209 45L209 72L278 72L278 67L348 67L348 82L417 82L417 76L487 76L487 38L557 38L557 66L626 66L626 83L696 83L696 54L765 54L765 49L835 49L835 62L904 62L904 76L974 76L974 78L1043 78L1043 40L1113 40L1113 84L1183 84L1183 79L1252 79L1252 53L1322 53L1322 57L1391 57L1391 61L1461 61L1461 74L1530 74L1530 42L1600 42L1600 83L1600 0L1600 0L1530 0L1530 0L1461 0L1461 0L1391 0L1391 0L1322 0L1322 0L1252 0L1252 0L1183 0L1183 0L1113 0L1113 0L1043 0L1043 0L974 0L974 0L904 0L904 0L835 0L835 0L765 0L765 0L696 0L696 0L626 0L626 0L557 0L557 0L487 0L487 0L417 0L417 0L348 0L348 0L278 0L278 0L209 0L209 0L139 0L139 0L70 0L70 0L0 0Z" fill="#f7667b"></path>
    <path d="M0 62L70 62L70 51L139 51L139 63L209 63L209 64L278 64L278 37L348 37L348 64L417 64L417 30L487 30L487 64L557 64L557 54L626 54L626 52L696 52L696 58L765 58L765 71L835 71L835 35L904 35L904 40L974 40L974 55L1043 55L1043 40L1113 40L1113 69L1183 69L1183 58L1252 58L1252 36L1322 36L1322 41L1391 41L1391 41L1461 41L1461 33L1530 33L1530 51L1600 51L1600 42L1600 0L1600 0L1530 0L1530 0L1461 0L1461 0L1391 0L1391 0L1322 0L1322 0L1252 0L1252 0L1183 0L1183 0L1113 0L1113 0L1043 0L1043 0L974 0L974 0L904 0L904 0L835 0L835 0L765 0L765 0L696 0L696 0L626 0L626 0L557 0L557 0L487 0L487 0L417 0L417 0L348 0L348 0L278 0L278 0L209 0L209 0L139 0L139 0L70 0L70 0L0 0Z" fill="#f35a71"></path>
    <path d="M0 34L70 34L70 25L139 25L139 28L209 28L209 61L278 61L278 53L348 53L348 34L417 34L417 43L487 43L487 42L557 42L557 59L626 59L626 43L696 43L696 28L765 28L765 57L835 57L835 53L904 53L904 25L974 25L974 38L1043 38L1043 31L1113 31L1113 35L1183 35L1183 52L1252 52L1252 26L1322 26L1322 48L1391 48L1391 54L1461 54L1461 35L1530 35L1530 34L1600 34L1600 36L1600 0L1600 0L1530 0L1530 0L1461 0L1461 0L1391 0L1391 0L1322 0L1322 0L1252 0L1252 0L1183 0L1183 0L1113 0L1113 0L1043 0L1043 0L974 0L974 0L904 0L904 0L835 0L835 0L765 0L765 0L696 0L696 0L626 0L626 0L557 0L557 0L487 0L487 0L417 0L417 0L348 0L348 0L278 0L278 0L209 0L209 0L139 0L139 0L70 0L70 0L0 0Z" fill="#ef4e67"></path>
    <path d="M0 28L70 28L70 40L139 40L139 43L209 43L209 30L278 30L278 46L348 46L348 44L417 44L417 24L487 24L487 39L557 39L557 19L626 19L626 32L696 32L696 35L765 35L765 25L835 25L835 15L904 15L904 47L974 47L974 30L1043 30L1043 19L1113 19L1113 19L1183 19L1183 20L1252 20L1252 28L1322 28L1322 42L1391 42L1391 14L1461 14L1461 34L1530 34L1530 29L1600 29L1600 38L1600 0L1600 0L1530 0L1530 0L1461 0L1461 0L1391 0L1391 0L1322 0L1322 0L1252 0L1252 0L1183 0L1183 0L1113 0L1113 0L1043 0L1043 0L974 0L974 0L904 0L904 0L835 0L835 0L765 0L765 0L696 0L696 0L626 0L626 0L557 0L557 0L487 0L487 0L417 0L417 0L348 0L348 0L278 0L278 0L209 0L209 0L139 0L139 0L70 0L70 0L0 0Z" fill="#eb415d"></path>
    <path d="M0 12L70 12L70 7L139 7L139 21L209 21L209 25L278 25L278 25L348 25L348 11L417 11L417 15L487 15L487 10L557 10L557 32L626 32L626 24L696 24L696 29L765 29L765 18L835 18L835 24L904 24L904 27L974 27L974 10L1043 10L1043 29L1113 29L1113 24L1183 24L1183 10L1252 10L1252 34L1322 34L1322 30L1391 30L1391 31L1461 31L1461 20L1530 20L1530 10L1600 10L1600 36L1600 0L1600 0L1530 0L1530 0L1461 0L1461 0L1391 0L1391 0L1322 0L1322 0L1252 0L1252 0L1183 0L1183 0L1113 0L1113 0L1043 0L1043 0L974 0L974 0L904 0L904 0L835 0L835 0L765 0L765 0L696 0L696 0L626 0L626 0L557 0L557 0L487 0L487 0L417 0L417 0L348 0L348 0L278 0L278 0L209 0L209 0L139 0L139 0L70 0L70 0L0 0Z" fill="#e63152"></path>
    <path d="M0 24L70 24L70 15L139 15L139 5L209 5L209 4L278 4L278 7L348 7L348 19L417 19L417 5L487 5L487 6L557 6L557 21L626 21L626 7L696 7L696 17L765 17L765 15L835 15L835 5L904 5L904 7L974 7L974 4L1043 4L1043 11L1113 11L1113 16L1183 16L1183 20L1252 20L1252 3L1322 3L1322 17L1391 17L1391 0L1461 0L1461 15L1530 15L1530 1L1600 1L1600 10L1600 0L1600 0L1530 0L1530 0L1461 0L1461 0L1391 0L1391 0L1322 0L1322 0L1252 0L1252 0L1183 0L1183 0L1113 0L1113 0L1043 0L1043 0L974 0L974 0L904 0L904 0L835 0L835 0L765 0L765 0L696 0L696 0L626 0L626 0L557 0L557 0L487 0L487 0L417 0L417 0L348 0L348 0L278 0L278 0L209 0L209 0L139 0L139 0L70 0L70 0L0 0Z" fill="#e11d48"></path>
</svg>