<svg id="visual" viewBox="0 0 900 600" width="900" height="600" xmlns="http://www.w3.org/2000/svg" xmlns:xlink="http://www.w3.org/1999/xlink" version="1.1">
    <rect x="0" y="0" width="900" height="600" fill="#fff1f2"></rect>
    <path d="M0 398L64 432L129 453L193 418L257 452L321 441L386 423L450 449L514 412L579 428L643 397L707 422L771 409L836 402L900 411L900 601L836 601L771 601L707 601L643 601L579 601L514 601L450 601L386 601L321 601L257 601L193 601L129 601L64 601L0 601Z" fill="#fb7185"></path>
    <path d="M0 462L64 469L129 478L193 467L257 462L321 455L386 434L450 427L514 482L579 430L643 447L707 434L771 485L836 433L900 434L900 601L836 601L771 601L707 601L643 601L579 601L514 601L450 601L386 601L321 601L257 601L193 601L129 601L64 601L0 601Z" fill="#f8677c"></path>
    <path d="M0 446L64 483L129 494L193 469L257 468L321 448L386 477L450 479L514 447L579 494L643 456L707 473L771 486L836 475L900 451L900 601L836 601L771 601L707 601L643 601L579 601L514 601L450 601L386 601L321 601L257 601L193 601L129 601L64 601L0 601Z" fill="#f45e74"></path>
    <path d="M0 510L64 494L129 469L193 478L257 511L321 516L386 474L450 478L514 482L579 505L643 482L707 476L771 488L836 491L900 498L900 601L836 601L771 601L707 601L643 601L579 601L514 601L450 601L386 601L321 601L257 601L193 601L129 601L64 601L0 601Z" fill="#f1536b"></path>
    <path d="M0 510L64 501L129 497L193 512L257 514L321 490L386 515L450 506L514 496L579 520L643 526L707 507L771 528L836 492L900 494L900 601L836 601L771 601L707 601L643 601L579 601L514 601L450 601L386 601L321 601L257 601L193 601L129 601L64 601L0 601Z" fill="#ed4863"></path>
    <path d="M0 526L64 520L129 514L193 533L257 543L321 525L386 532L450 541L514 514L579 513L643 551L707 532L771 537L836 521L900 542L900 601L836 601L771 601L707 601L643 601L579 601L514 601L450 601L386 601L321 601L257 601L193 601L129 601L64 601L0 601Z" fill="#e93c5a"></path>
    <path d="M0 541L64 537L129 568L193 560L257 555L321 551L386 557L450 559L514 549L579 539L643 569L707 549L771 543L836 544L900 568L900 601L836 601L771 601L707 601L643 601L579 601L514 601L450 601L386 601L321 601L257 601L193 601L129 601L64 601L0 601Z" fill="#e52f51"></path>
    <path d="M0 568L64 571L129 567L193 585L257 572L321 584L386 567L450 569L514 569L579 581L643 567L707 564L771 579L836 571L900 584L900 601L836 601L771 601L707 601L643 601L579 601L514 601L450 601L386 601L321 601L257 601L193 601L129 601L64 601L0 601Z" fill="#e11d48"></path>
</svg>