<svg id="visual" viewBox="0 0 900 600" width="900" height="600" xmlns="http://www.w3.org/2000/svg" xmlns:xlink="http://www.w3.org/1999/xlink" version="1.1">
    <rect x="0" y="0" width="900" height="600" fill="#fff1f2"></rect>
    <path d="M0 224L6.8 259.3C13.7 294.7 27.3 365.3 41 355.8C54.7 346.3 68.3 256.7 82 218.2C95.7 179.7 109.3 192.3 123 220C136.7 247.7 150.3 290.3 164 293C177.7 295.7 191.3 258.3 204.8 252C218.3 245.7 231.7 270.3 245.2 289.8C258.7 309.3 272.3 323.7 286 303.2C299.7 282.7 313.3 227.3 327 194.3C340.7 161.3 354.3 150.7 368 168.3C381.7 186 395.3 232 409 231.5C422.7 231 436.3 184 450 180.7C463.7 177.3 477.3 217.7 491 255.7C504.7 293.7 518.3 329.3 532 325.5C545.7 321.7 559.3 278.3 573 274.3C586.7 270.3 600.3 305.7 614 317.5C627.7 329.3 641.3 317.7 654.8 301.3C668.3 285 681.7 264 695.2 246.3C708.7 228.7 722.3 214.3 736 215.3C749.7 216.3 763.3 232.7 777 249.3C790.7 266 804.3 283 818 272.3C831.7 261.7 845.3 223.3 859 230.2C872.7 237 886.3 289 893.2 315L900 341L900 601L893.2 601C886.3 601 872.7 601 859 601C845.3 601 831.7 601 818 601C804.3 601 790.7 601 777 601C763.3 601 749.7 601 736 601C722.3 601 708.7 601 695.2 601C681.7 601 668.3 601 654.8 601C641.3 601 627.7 601 614 601C600.3 601 586.7 601 573 601C559.3 601 545.7 601 532 601C518.3 601 504.7 601 491 601C477.3 601 463.7 601 450 601C436.3 601 422.7 601 409 601C395.3 601 381.7 601 368 601C354.3 601 340.7 601 327 601C313.3 601 299.7 601 286 601C272.3 601 258.7 601 245.2 601C231.7 601 218.3 601 204.8 601C191.3 601 177.7 601 164 601C150.3 601 136.7 601 123 601C109.3 601 95.7 601 82 601C68.3 601 54.7 601 41 601C27.3 601 13.7 601 6.8 601L0 601Z" fill="#fff1f2"></path>
    <path d="M0 437L6.8 428.8C13.7 420.7 27.3 404.3 41 377.3C54.7 350.3 68.3 312.7 82 318C95.7 323.3 109.3 371.7 123 390.2C136.7 408.7 150.3 397.3 164 385.2C177.7 373 191.3 360 204.8 334.2C218.3 308.3 231.7 269.7 245.2 268C258.7 266.3 272.3 301.7 286 308.3C299.7 315 313.3 293 327 294.8C340.7 296.7 354.3 322.3 368 336.5C381.7 350.7 395.3 353.3 409 356.5C422.7 359.7 436.3 363.3 450 350.5C463.7 337.7 477.3 308.3 491 286C504.7 263.7 518.3 248.3 532 251.2C545.7 254 559.3 275 573 308.2C586.7 341.3 600.3 386.7 614 378.8C627.7 371 641.3 310 654.8 278.7C668.3 247.3 681.7 245.7 695.2 257.8C708.7 270 722.3 296 736 297.2C749.7 298.3 763.3 274.7 777 256.3C790.7 238 804.3 225 818 226.2C831.7 227.3 845.3 242.7 859 261.8C872.7 281 886.3 304 893.2 315.5L900 327L900 601L893.2 601C886.3 601 872.7 601 859 601C845.3 601 831.7 601 818 601C804.3 601 790.7 601 777 601C763.3 601 749.7 601 736 601C722.3 601 708.7 601 695.2 601C681.7 601 668.3 601 654.8 601C641.3 601 627.7 601 614 601C600.3 601 586.7 601 573 601C559.3 601 545.7 601 532 601C518.3 601 504.7 601 491 601C477.3 601 463.7 601 450 601C436.3 601 422.7 601 409 601C395.3 601 381.7 601 368 601C354.3 601 340.7 601 327 601C313.3 601 299.7 601 286 601C272.3 601 258.7 601 245.2 601C231.7 601 218.3 601 204.8 601C191.3 601 177.7 601 164 601C150.3 601 136.7 601 123 601C109.3 601 95.7 601 82 601C68.3 601 54.7 601 41 601C27.3 601 13.7 601 6.8 601L0 601Z" fill="#ffc3c8"></path>
    <path d="M0 271L6.8 285.3C13.7 299.7 27.3 328.3 41 349C54.7 369.7 68.3 382.3 82 384C95.7 385.7 109.3 376.3 123 376.7C136.7 377 150.3 387 164 380.2C177.7 373.3 191.3 349.7 204.8 335.2C218.3 320.7 231.7 315.3 245.2 334.2C258.7 353 272.3 396 286 381.5C299.7 367 313.3 295 327 298.3C340.7 301.7 354.3 380.3 368 379.8C381.7 379.3 395.3 299.7 409 291.5C422.7 283.3 436.3 346.7 450 385.8C463.7 425 477.3 440 491 424.5C504.7 409 518.3 363 532 341.7C545.7 320.3 559.3 323.7 573 331.2C586.7 338.7 600.3 350.3 614 360.3C627.7 370.3 641.3 378.7 654.8 381.3C668.3 384 681.7 381 695.2 377.3C708.7 373.7 722.3 369.3 736 350.3C749.7 331.3 763.3 297.7 777 312.2C790.7 326.7 804.3 389.3 818 405.5C831.7 421.7 845.3 391.3 859 357.5C872.7 323.7 886.3 286.3 893.2 267.7L900 249L900 601L893.2 601C886.3 601 872.7 601 859 601C845.3 601 831.7 601 818 601C804.3 601 790.7 601 777 601C763.3 601 749.7 601 736 601C722.3 601 708.7 601 695.2 601C681.7 601 668.3 601 654.8 601C641.3 601 627.7 601 614 601C600.3 601 586.7 601 573 601C559.3 601 545.7 601 532 601C518.3 601 504.7 601 491 601C477.3 601 463.7 601 450 601C436.3 601 422.7 601 409 601C395.3 601 381.7 601 368 601C354.3 601 340.7 601 327 601C313.3 601 299.7 601 286 601C272.3 601 258.7 601 245.2 601C231.7 601 218.3 601 204.8 601C191.3 601 177.7 601 164 601C150.3 601 136.7 601 123 601C109.3 601 95.7 601 82 601C68.3 601 54.7 601 41 601C27.3 601 13.7 601 6.8 601L0 601Z" fill="#fb959d"></path>
    <path d="M0 306L6.8 301.5C13.7 297 27.3 288 41 305.8C54.7 323.7 68.3 368.3 82 401.3C95.7 434.3 109.3 455.7 123 451.3C136.7 447 150.3 417 164 395.5C177.7 374 191.3 361 204.8 343.3C218.3 325.7 231.7 303.3 245.2 313.7C258.7 324 272.3 367 286 387.2C299.7 407.3 313.3 404.7 327 390.5C340.7 376.3 354.3 350.7 368 336.3C381.7 322 395.3 319 409 319.8C422.7 320.7 436.3 325.3 450 321.2C463.7 317 477.3 304 491 292.5C504.7 281 518.3 271 532 299.3C545.7 327.7 559.3 394.3 573 416.3C586.7 438.3 600.3 415.7 614 408.3C627.7 401 641.3 409 654.8 417.8C668.3 426.7 681.7 436.3 695.2 410C708.7 383.7 722.3 321.3 736 289C749.7 256.7 763.3 254.3 777 261C790.7 267.7 804.3 283.3 818 292.3C831.7 301.3 845.3 303.7 859 321.8C872.7 340 886.3 374 893.2 391L900 408L900 601L893.2 601C886.3 601 872.7 601 859 601C845.3 601 831.7 601 818 601C804.3 601 790.7 601 777 601C763.3 601 749.7 601 736 601C722.3 601 708.7 601 695.2 601C681.7 601 668.3 601 654.8 601C641.3 601 627.7 601 614 601C600.3 601 586.7 601 573 601C559.3 601 545.7 601 532 601C518.3 601 504.7 601 491 601C477.3 601 463.7 601 450 601C436.3 601 422.7 601 409 601C395.3 601 381.7 601 368 601C354.3 601 340.7 601 327 601C313.3 601 299.7 601 286 601C272.3 601 258.7 601 245.2 601C231.7 601 218.3 601 204.8 601C191.3 601 177.7 601 164 601C150.3 601 136.7 601 123 601C109.3 601 95.7 601 82 601C68.3 601 54.7 601 41 601C27.3 601 13.7 601 6.8 601L0 601Z" fill="#f06372"></path>
    <path d="M0 365L6.8 373.2C13.7 381.3 27.3 397.7 41 404.7C54.7 411.7 68.3 409.3 82 405.5C95.7 401.7 109.3 396.3 123 407.8C136.7 419.3 150.3 447.7 164 460.7C177.7 473.7 191.3 471.3 204.8 467.7C218.3 464 231.7 459 245.2 439.3C258.7 419.7 272.3 385.3 286 392.8C299.7 400.3 313.3 449.7 327 472C340.7 494.3 354.3 489.7 368 469.2C381.7 448.7 395.3 412.3 409 415C422.7 417.7 436.3 459.3 450 476C463.7 492.7 477.3 484.3 491 464.7C504.7 445 518.3 414 532 387.3C545.7 360.7 559.3 338.3 573 348.3C586.7 358.3 600.3 400.7 614 400C627.7 399.3 641.3 355.7 654.8 360.2C668.3 364.7 681.7 417.3 695.2 427.2C708.7 437 722.3 404 736 404.7C749.7 405.3 763.3 439.7 777 444.5C790.7 449.3 804.3 424.7 818 404.3C831.7 384 845.3 368 859 361.2C872.7 354.3 886.3 356.7 893.2 357.8L900 359L900 601L893.2 601C886.3 601 872.7 601 859 601C845.3 601 831.7 601 818 601C804.3 601 790.7 601 777 601C763.3 601 749.7 601 736 601C722.3 601 708.7 601 695.2 601C681.7 601 668.3 601 654.8 601C641.3 601 627.7 601 614 601C600.3 601 586.7 601 573 601C559.3 601 545.7 601 532 601C518.3 601 504.7 601 491 601C477.3 601 463.7 601 450 601C436.3 601 422.7 601 409 601C395.3 601 381.7 601 368 601C354.3 601 340.7 601 327 601C313.3 601 299.7 601 286 601C272.3 601 258.7 601 245.2 601C231.7 601 218.3 601 204.8 601C191.3 601 177.7 601 164 601C150.3 601 136.7 601 123 601C109.3 601 95.7 601 82 601C68.3 601 54.7 601 41 601C27.3 601 13.7 601 6.8 601L0 601Z" fill="#e11d48"></path>
    <path d="M0 335L6.8 361.5C13.7 388 27.3 441 41 445.2C54.7 449.3 68.3 404.7 82 379.5C95.7 354.3 109.3 348.7 123 354.5C136.7 360.3 150.3 377.7 164 381.2C177.7 384.7 191.3 374.3 204.8 378.7C218.3 383 231.7 402 245.2 398.5C258.7 395 272.3 369 286 363C299.7 357 313.3 371 327 377C340.7 383 354.3 381 368 380.2C381.7 379.3 395.3 379.7 409 375.2C422.7 370.7 436.3 361.3 450 369.3C463.7 377.3 477.3 402.7 491 414.3C504.7 426 518.3 424 532 420.3C545.7 416.7 559.3 411.3 573 425.3C586.7 439.3 600.3 472.7 614 474.3C627.7 476 641.3 446 654.8 419.8C668.3 393.7 681.7 371.3 695.2 377.8C708.7 384.3 722.3 419.7 736 430.3C749.7 441 763.3 427 777 421.2C790.7 415.3 804.3 417.7 818 405.7C831.7 393.7 845.3 367.3 859 369.2C872.7 371 886.3 401 893.2 416L900 431L900 601L893.2 601C886.3 601 872.7 601 859 601C845.3 601 831.7 601 818 601C804.3 601 790.7 601 777 601C763.3 601 749.7 601 736 601C722.3 601 708.7 601 695.2 601C681.7 601 668.3 601 654.8 601C641.3 601 627.7 601 614 601C600.3 601 586.7 601 573 601C559.3 601 545.7 601 532 601C518.3 601 504.7 601 491 601C477.3 601 463.7 601 450 601C436.3 601 422.7 601 409 601C395.3 601 381.7 601 368 601C354.3 601 340.7 601 327 601C313.3 601 299.7 601 286 601C272.3 601 258.7 601 245.2 601C231.7 601 218.3 601 204.8 601C191.3 601 177.7 601 164 601C150.3 601 136.7 601 123 601C109.3 601 95.7 601 82 601C68.3 601 54.7 601 41 601C27.3 601 13.7 601 6.8 601L0 601Z" fill="#e11d48"></path>
    <path d="M0 404L6.8 404.2C13.7 404.3 27.3 404.7 41 410.3C54.7 416 68.3 427 82 440.8C95.7 454.7 109.3 471.3 123 470.5C136.7 469.7 150.3 451.3 164 436.7C177.7 422 191.3 411 204.8 417.7C218.3 424.3 231.7 448.7 245.2 457.3C258.7 466 272.3 459 286 464.2C299.7 469.3 313.3 486.7 327 474.7C340.7 462.7 354.3 421.3 368 423.2C381.7 425 395.3 470 409 492.5C422.7 515 436.3 515 450 515.7C463.7 516.3 477.3 517.7 491 517.8C504.7 518 518.3 517 532 503.7C545.7 490.3 559.3 464.7 573 441.2C586.7 417.7 600.3 396.3 614 395.3C627.7 394.3 641.3 413.7 654.8 414C668.3 414.3 681.7 395.7 695.2 383.7C708.7 371.7 722.3 366.3 736 367.7C749.7 369 763.3 377 777 403.7C790.7 430.3 804.3 475.7 818 473.8C831.7 472 845.3 423 859 411.8C872.7 400.7 886.3 427.3 893.2 440.7L900 454L900 601L893.2 601C886.3 601 872.7 601 859 601C845.3 601 831.7 601 818 601C804.3 601 790.7 601 777 601C763.3 601 749.7 601 736 601C722.3 601 708.7 601 695.2 601C681.7 601 668.3 601 654.8 601C641.3 601 627.7 601 614 601C600.3 601 586.7 601 573 601C559.3 601 545.7 601 532 601C518.3 601 504.7 601 491 601C477.3 601 463.7 601 450 601C436.3 601 422.7 601 409 601C395.3 601 381.7 601 368 601C354.3 601 340.7 601 327 601C313.3 601 299.7 601 286 601C272.3 601 258.7 601 245.2 601C231.7 601 218.3 601 204.8 601C191.3 601 177.7 601 164 601C150.3 601 136.7 601 123 601C109.3 601 95.7 601 82 601C68.3 601 54.7 601 41 601C27.3 601 13.7 601 6.8 601L0 601Z" fill="#e11d48"></path>
    <path d="M0 419L6.8 431.7C13.7 444.3 27.3 469.7 41 484.3C54.7 499 68.3 503 82 494.2C95.7 485.3 109.3 463.7 123 466.2C136.7 468.7 150.3 495.3 164 498C177.7 500.7 191.3 479.3 204.8 465.8C218.3 452.3 231.7 446.7 245.2 461.8C258.7 477 272.3 513 286 524.2C299.7 535.3 313.3 521.7 327 499.8C340.7 478 354.3 448 368 454.2C381.7 460.3 395.3 502.7 409 505.8C422.7 509 436.3 473 450 469.2C463.7 465.3 477.3 493.7 491 511.3C504.7 529 518.3 536 532 526.7C545.7 517.3 559.3 491.7 573 473C586.7 454.3 600.3 442.7 614 450.5C627.7 458.3 641.3 485.7 654.8 486.2C668.3 486.7 681.7 460.3 695.2 466C708.7 471.7 722.3 509.3 736 525.7C749.7 542 763.3 537 777 526.8C790.7 516.7 804.3 501.3 818 489.7C831.7 478 845.3 470 859 463.2C872.7 456.3 886.3 450.7 893.2 447.8L900 445L900 601L893.2 601C886.3 601 872.7 601 859 601C845.3 601 831.7 601 818 601C804.3 601 790.7 601 777 601C763.3 601 749.7 601 736 601C722.3 601 708.7 601 695.2 601C681.7 601 668.3 601 654.8 601C641.3 601 627.7 601 614 601C600.3 601 586.7 601 573 601C559.3 601 545.7 601 532 601C518.3 601 504.7 601 491 601C477.3 601 463.7 601 450 601C436.3 601 422.7 601 409 601C395.3 601 381.7 601 368 601C354.3 601 340.7 601 327 601C313.3 601 299.7 601 286 601C272.3 601 258.7 601 245.2 601C231.7 601 218.3 601 204.8 601C191.3 601 177.7 601 164 601C150.3 601 136.7 601 123 601C109.3 601 95.7 601 82 601C68.3 601 54.7 601 41 601C27.3 601 13.7 601 6.8 601L0 601Z" fill="#f06372"></path>
    <path d="M0 562L6.8 559.3C13.7 556.7 27.3 551.3 41 544.8C54.7 538.3 68.3 530.7 82 532.7C95.7 534.7 109.3 546.3 123 535.8C136.7 525.3 150.3 492.7 164 479.7C177.7 466.7 191.3 473.3 204.8 476.2C218.3 479 231.7 478 245.2 481.7C258.7 485.3 272.3 493.7 286 501.3C299.7 509 313.3 516 327 506C340.7 496 354.3 469 368 456.8C381.7 444.7 395.3 447.3 409 465.5C422.7 483.7 436.3 517.3 450 516.8C463.7 516.3 477.3 481.7 491 481C504.7 480.3 518.3 513.7 532 525.3C545.7 537 559.3 527 573 519C586.7 511 600.3 505 614 498.8C627.7 492.7 641.3 486.3 654.8 492C668.3 497.7 681.7 515.3 695.2 524.3C708.7 533.3 722.3 533.7 736 525.8C749.7 518 763.3 502 777 488.2C790.7 474.3 804.3 462.7 818 463.7C831.7 464.7 845.3 478.3 859 491.2C872.7 504 886.3 516 893.2 522L900 528L900 601L893.2 601C886.3 601 872.7 601 859 601C845.3 601 831.7 601 818 601C804.3 601 790.7 601 777 601C763.3 601 749.7 601 736 601C722.3 601 708.7 601 695.2 601C681.7 601 668.3 601 654.8 601C641.3 601 627.7 601 614 601C600.3 601 586.7 601 573 601C559.3 601 545.7 601 532 601C518.3 601 504.7 601 491 601C477.3 601 463.7 601 450 601C436.3 601 422.7 601 409 601C395.3 601 381.7 601 368 601C354.3 601 340.7 601 327 601C313.3 601 299.7 601 286 601C272.3 601 258.7 601 245.2 601C231.7 601 218.3 601 204.8 601C191.3 601 177.7 601 164 601C150.3 601 136.7 601 123 601C109.3 601 95.7 601 82 601C68.3 601 54.7 601 41 601C27.3 601 13.7 601 6.8 601L0 601Z" fill="#fb959d"></path>
    <path d="M0 564L6.8 555.8C13.7 547.7 27.3 531.3 41 530.7C54.7 530 68.3 545 82 553.5C95.7 562 109.3 564 123 554.3C136.7 544.7 150.3 523.3 164 521.2C177.7 519 191.3 536 204.8 539.5C218.3 543 231.7 533 245.2 530C258.7 527 272.3 531 286 536.8C299.7 542.7 313.3 550.3 327 545.2C340.7 540 354.3 522 368 509.3C381.7 496.7 395.3 489.3 409 487.8C422.7 486.3 436.3 490.7 450 496.7C463.7 502.7 477.3 510.3 491 507.8C504.7 505.3 518.3 492.7 532 498.3C545.7 504 559.3 528 573 543.7C586.7 559.3 600.3 566.7 614 556.3C627.7 546 641.3 518 654.8 511.2C668.3 504.3 681.7 518.7 695.2 519C708.7 519.3 722.3 505.7 736 501.3C749.7 497 763.3 502 777 501.2C790.7 500.3 804.3 493.7 818 502.5C831.7 511.3 845.3 535.7 859 534.5C872.7 533.3 886.3 506.7 893.2 493.3L900 480L900 601L893.2 601C886.3 601 872.7 601 859 601C845.3 601 831.7 601 818 601C804.3 601 790.7 601 777 601C763.3 601 749.7 601 736 601C722.3 601 708.7 601 695.2 601C681.7 601 668.3 601 654.8 601C641.3 601 627.7 601 614 601C600.3 601 586.7 601 573 601C559.3 601 545.7 601 532 601C518.3 601 504.7 601 491 601C477.3 601 463.7 601 450 601C436.3 601 422.7 601 409 601C395.3 601 381.7 601 368 601C354.3 601 340.7 601 327 601C313.3 601 299.7 601 286 601C272.3 601 258.7 601 245.2 601C231.7 601 218.3 601 204.8 601C191.3 601 177.7 601 164 601C150.3 601 136.7 601 123 601C109.3 601 95.7 601 82 601C68.3 601 54.7 601 41 601C27.3 601 13.7 601 6.8 601L0 601Z" fill="#ffc3c8"></path>
    <path d="M0 589L6.8 582C13.7 575 27.3 561 41 552.3C54.7 543.7 68.3 540.3 82 545.2C95.7 550 109.3 563 123 560.3C136.7 557.7 150.3 539.3 164 542.5C177.7 545.7 191.3 570.3 204.8 570C218.3 569.7 231.7 544.3 245.2 543C258.7 541.7 272.3 564.3 286 567.2C299.7 570 313.3 553 327 552.3C340.7 551.7 354.3 567.3 368 576C381.7 584.7 395.3 586.3 409 582.7C422.7 579 436.3 570 450 567.8C463.7 565.7 477.3 570.3 491 573.7C504.7 577 518.3 579 532 580.5C545.7 582 559.3 583 573 577.7C586.7 572.3 600.3 560.7 614 562.3C627.7 564 641.3 579 654.8 580.7C668.3 582.3 681.7 570.7 695.2 570.7C708.7 570.7 722.3 582.3 736 588.8C749.7 595.3 763.3 596.7 777 595.3C790.7 594 804.3 590 818 584.8C831.7 579.7 845.3 573.3 859 563.8C872.7 554.3 886.3 541.7 893.2 535.3L900 529L900 601L893.2 601C886.3 601 872.7 601 859 601C845.3 601 831.7 601 818 601C804.3 601 790.7 601 777 601C763.3 601 749.7 601 736 601C722.3 601 708.7 601 695.2 601C681.7 601 668.3 601 654.8 601C641.3 601 627.7 601 614 601C600.3 601 586.7 601 573 601C559.3 601 545.7 601 532 601C518.3 601 504.7 601 491 601C477.3 601 463.7 601 450 601C436.3 601 422.7 601 409 601C395.3 601 381.7 601 368 601C354.3 601 340.7 601 327 601C313.3 601 299.7 601 286 601C272.3 601 258.7 601 245.2 601C231.7 601 218.3 601 204.8 601C191.3 601 177.7 601 164 601C150.3 601 136.7 601 123 601C109.3 601 95.7 601 82 601C68.3 601 54.7 601 41 601C27.3 601 13.7 601 6.8 601L0 601Z" fill="#fff1f2"></path>
</svg>